<mxfile host="app.diagrams.net" modified="2023-10-31T15:45:48.482Z" agent="Mozilla/5.0 (Windows NT 10.0; Win64; x64) AppleWebKit/537.36 (KHTML, like Gecko) Chrome/118.0.0.0 Safari/537.36 Edg/118.0.2088.76" etag="3A8eN0u54ZbdEDkYkhIC" version="22.0.8" type="github">
  <diagram name="Page-1" id="WEP7-Qh3brNbTsnu_oZL">
    <mxGraphModel dx="2213" dy="1928" grid="1" gridSize="10" guides="1" tooltips="1" connect="1" arrows="1" fold="1" page="1" pageScale="1" pageWidth="827" pageHeight="1169" math="0" shadow="0">
      <root>
        <mxCell id="0" />
        <mxCell id="1" parent="0" />
        <mxCell id="T9mBaE4iDWLHkzV0OVeB-1" value="" style="edgeStyle=orthogonalEdgeStyle;rounded=0;orthogonalLoop=1;jettySize=auto;html=1;" edge="1" parent="1" source="T9mBaE4iDWLHkzV0OVeB-8" target="T9mBaE4iDWLHkzV0OVeB-12">
          <mxGeometry relative="1" as="geometry" />
        </mxCell>
        <mxCell id="T9mBaE4iDWLHkzV0OVeB-2" style="edgeStyle=orthogonalEdgeStyle;rounded=0;orthogonalLoop=1;jettySize=auto;html=1;exitX=0;exitY=0;exitDx=0;exitDy=0;" edge="1" parent="1" source="T9mBaE4iDWLHkzV0OVeB-8" target="T9mBaE4iDWLHkzV0OVeB-20">
          <mxGeometry relative="1" as="geometry" />
        </mxCell>
        <mxCell id="T9mBaE4iDWLHkzV0OVeB-4" value="" style="edgeStyle=orthogonalEdgeStyle;rounded=0;orthogonalLoop=1;jettySize=auto;html=1;" edge="1" parent="1" source="T9mBaE4iDWLHkzV0OVeB-8" target="T9mBaE4iDWLHkzV0OVeB-25">
          <mxGeometry relative="1" as="geometry" />
        </mxCell>
        <mxCell id="T9mBaE4iDWLHkzV0OVeB-5" style="edgeStyle=orthogonalEdgeStyle;rounded=0;orthogonalLoop=1;jettySize=auto;html=1;" edge="1" parent="1" source="T9mBaE4iDWLHkzV0OVeB-8" target="T9mBaE4iDWLHkzV0OVeB-23">
          <mxGeometry relative="1" as="geometry" />
        </mxCell>
        <mxCell id="T9mBaE4iDWLHkzV0OVeB-6" style="edgeStyle=orthogonalEdgeStyle;rounded=0;orthogonalLoop=1;jettySize=auto;html=1;exitX=0.25;exitY=0;exitDx=0;exitDy=0;" edge="1" parent="1" source="T9mBaE4iDWLHkzV0OVeB-8" target="T9mBaE4iDWLHkzV0OVeB-21">
          <mxGeometry relative="1" as="geometry" />
        </mxCell>
        <mxCell id="T9mBaE4iDWLHkzV0OVeB-88" style="edgeStyle=orthogonalEdgeStyle;rounded=0;orthogonalLoop=1;jettySize=auto;html=1;exitX=0;exitY=0.25;exitDx=0;exitDy=0;entryX=1;entryY=0.5;entryDx=0;entryDy=0;" edge="1" parent="1" source="T9mBaE4iDWLHkzV0OVeB-8" target="T9mBaE4iDWLHkzV0OVeB-22">
          <mxGeometry relative="1" as="geometry" />
        </mxCell>
        <mxCell id="T9mBaE4iDWLHkzV0OVeB-89" style="edgeStyle=orthogonalEdgeStyle;rounded=0;orthogonalLoop=1;jettySize=auto;html=1;exitX=0;exitY=0.75;exitDx=0;exitDy=0;entryX=1;entryY=0.5;entryDx=0;entryDy=0;" edge="1" parent="1" source="T9mBaE4iDWLHkzV0OVeB-8" target="T9mBaE4iDWLHkzV0OVeB-24">
          <mxGeometry relative="1" as="geometry" />
        </mxCell>
        <mxCell id="T9mBaE4iDWLHkzV0OVeB-8" value="&lt;font style=&quot;font-size: 20px;&quot;&gt;Учесник&lt;/font&gt;" style="rounded=0;whiteSpace=wrap;html=1;" vertex="1" parent="1">
          <mxGeometry x="280" y="-5" width="160" height="60" as="geometry" />
        </mxCell>
        <mxCell id="T9mBaE4iDWLHkzV0OVeB-9" style="edgeStyle=orthogonalEdgeStyle;rounded=0;orthogonalLoop=1;jettySize=auto;html=1;" edge="1" parent="1" source="T9mBaE4iDWLHkzV0OVeB-12">
          <mxGeometry relative="1" as="geometry">
            <mxPoint x="160" y="275" as="targetPoint" />
          </mxGeometry>
        </mxCell>
        <mxCell id="T9mBaE4iDWLHkzV0OVeB-10" value="" style="edgeStyle=orthogonalEdgeStyle;rounded=0;orthogonalLoop=1;jettySize=auto;html=1;" edge="1" parent="1" source="T9mBaE4iDWLHkzV0OVeB-12" target="T9mBaE4iDWLHkzV0OVeB-15">
          <mxGeometry relative="1" as="geometry" />
        </mxCell>
        <mxCell id="T9mBaE4iDWLHkzV0OVeB-11" value="" style="edgeStyle=orthogonalEdgeStyle;rounded=0;orthogonalLoop=1;jettySize=auto;html=1;" edge="1" parent="1" source="T9mBaE4iDWLHkzV0OVeB-12" target="T9mBaE4iDWLHkzV0OVeB-17">
          <mxGeometry relative="1" as="geometry" />
        </mxCell>
        <mxCell id="T9mBaE4iDWLHkzV0OVeB-12" value="" style="ellipse;whiteSpace=wrap;html=1;rounded=0;" vertex="1" parent="1">
          <mxGeometry x="360" y="265" width="20" height="20" as="geometry" />
        </mxCell>
        <mxCell id="T9mBaE4iDWLHkzV0OVeB-65" style="edgeStyle=orthogonalEdgeStyle;rounded=0;orthogonalLoop=1;jettySize=auto;html=1;exitX=0;exitY=0.25;exitDx=0;exitDy=0;entryX=1;entryY=0.5;entryDx=0;entryDy=0;" edge="1" parent="1" source="T9mBaE4iDWLHkzV0OVeB-13" target="T9mBaE4iDWLHkzV0OVeB-62">
          <mxGeometry relative="1" as="geometry" />
        </mxCell>
        <mxCell id="T9mBaE4iDWLHkzV0OVeB-68" style="edgeStyle=orthogonalEdgeStyle;rounded=0;orthogonalLoop=1;jettySize=auto;html=1;exitX=0.25;exitY=1;exitDx=0;exitDy=0;entryX=0.5;entryY=0;entryDx=0;entryDy=0;" edge="1" parent="1" source="T9mBaE4iDWLHkzV0OVeB-13" target="T9mBaE4iDWLHkzV0OVeB-63">
          <mxGeometry relative="1" as="geometry" />
        </mxCell>
        <mxCell id="T9mBaE4iDWLHkzV0OVeB-80" style="edgeStyle=orthogonalEdgeStyle;rounded=0;orthogonalLoop=1;jettySize=auto;html=1;exitX=0.25;exitY=0;exitDx=0;exitDy=0;entryX=1;entryY=1;entryDx=0;entryDy=0;" edge="1" parent="1" source="T9mBaE4iDWLHkzV0OVeB-13" target="T9mBaE4iDWLHkzV0OVeB-79">
          <mxGeometry relative="1" as="geometry" />
        </mxCell>
        <mxCell id="T9mBaE4iDWLHkzV0OVeB-90" style="edgeStyle=orthogonalEdgeStyle;rounded=0;orthogonalLoop=1;jettySize=auto;html=1;exitX=0.5;exitY=0;exitDx=0;exitDy=0;entryX=0;entryY=0.5;entryDx=0;entryDy=0;" edge="1" parent="1" source="T9mBaE4iDWLHkzV0OVeB-13" target="T9mBaE4iDWLHkzV0OVeB-87">
          <mxGeometry relative="1" as="geometry" />
        </mxCell>
        <mxCell id="T9mBaE4iDWLHkzV0OVeB-114" value="1" style="edgeLabel;html=1;align=center;verticalAlign=middle;resizable=0;points=[];" vertex="1" connectable="0" parent="T9mBaE4iDWLHkzV0OVeB-90">
          <mxGeometry x="0.2571" relative="1" as="geometry">
            <mxPoint as="offset" />
          </mxGeometry>
        </mxCell>
        <mxCell id="T9mBaE4iDWLHkzV0OVeB-108" style="edgeStyle=orthogonalEdgeStyle;rounded=0;orthogonalLoop=1;jettySize=auto;html=1;exitX=1;exitY=1;exitDx=0;exitDy=0;entryX=0.5;entryY=0;entryDx=0;entryDy=0;" edge="1" parent="1" source="T9mBaE4iDWLHkzV0OVeB-13" target="T9mBaE4iDWLHkzV0OVeB-106">
          <mxGeometry relative="1" as="geometry" />
        </mxCell>
        <mxCell id="T9mBaE4iDWLHkzV0OVeB-112" value="1" style="edgeLabel;html=1;align=center;verticalAlign=middle;resizable=0;points=[];" vertex="1" connectable="0" parent="T9mBaE4iDWLHkzV0OVeB-108">
          <mxGeometry x="0.0833" y="-1" relative="1" as="geometry">
            <mxPoint x="1" y="1" as="offset" />
          </mxGeometry>
        </mxCell>
        <mxCell id="T9mBaE4iDWLHkzV0OVeB-121" style="edgeStyle=orthogonalEdgeStyle;rounded=0;orthogonalLoop=1;jettySize=auto;html=1;exitX=0.75;exitY=0;exitDx=0;exitDy=0;entryX=0;entryY=0.5;entryDx=0;entryDy=0;" edge="1" parent="1" source="T9mBaE4iDWLHkzV0OVeB-13" target="T9mBaE4iDWLHkzV0OVeB-116">
          <mxGeometry relative="1" as="geometry" />
        </mxCell>
        <mxCell id="T9mBaE4iDWLHkzV0OVeB-122" value="N" style="edgeLabel;html=1;align=center;verticalAlign=middle;resizable=0;points=[];" vertex="1" connectable="0" parent="T9mBaE4iDWLHkzV0OVeB-121">
          <mxGeometry x="0.4306" y="-3" relative="1" as="geometry">
            <mxPoint as="offset" />
          </mxGeometry>
        </mxCell>
        <mxCell id="T9mBaE4iDWLHkzV0OVeB-13" value="&lt;font style=&quot;font-size: 20px;&quot;&gt;Играч&lt;/font&gt;" style="rounded=0;whiteSpace=wrap;html=1;" vertex="1" parent="1">
          <mxGeometry x="60" y="245" width="120" height="60" as="geometry" />
        </mxCell>
        <mxCell id="T9mBaE4iDWLHkzV0OVeB-96" style="edgeStyle=orthogonalEdgeStyle;rounded=0;orthogonalLoop=1;jettySize=auto;html=1;exitX=0.5;exitY=1;exitDx=0;exitDy=0;entryX=0.5;entryY=0;entryDx=0;entryDy=0;" edge="1" parent="1" source="T9mBaE4iDWLHkzV0OVeB-15" target="T9mBaE4iDWLHkzV0OVeB-94">
          <mxGeometry relative="1" as="geometry" />
        </mxCell>
        <mxCell id="T9mBaE4iDWLHkzV0OVeB-126" style="edgeStyle=orthogonalEdgeStyle;rounded=0;orthogonalLoop=1;jettySize=auto;html=1;exitX=1;exitY=0.5;exitDx=0;exitDy=0;entryX=0.5;entryY=0;entryDx=0;entryDy=0;" edge="1" parent="1" source="T9mBaE4iDWLHkzV0OVeB-15" target="T9mBaE4iDWLHkzV0OVeB-124">
          <mxGeometry relative="1" as="geometry" />
        </mxCell>
        <mxCell id="T9mBaE4iDWLHkzV0OVeB-127" value="N" style="edgeLabel;html=1;align=center;verticalAlign=middle;resizable=0;points=[];" vertex="1" connectable="0" parent="T9mBaE4iDWLHkzV0OVeB-126">
          <mxGeometry x="0.0222" y="-1" relative="1" as="geometry">
            <mxPoint as="offset" />
          </mxGeometry>
        </mxCell>
        <mxCell id="T9mBaE4iDWLHkzV0OVeB-15" value="Судија" style="whiteSpace=wrap;html=1;rounded=0;" vertex="1" parent="1">
          <mxGeometry x="310" y="335" width="120" height="60" as="geometry" />
        </mxCell>
        <mxCell id="T9mBaE4iDWLHkzV0OVeB-117" style="edgeStyle=orthogonalEdgeStyle;rounded=0;orthogonalLoop=1;jettySize=auto;html=1;exitX=1;exitY=0.25;exitDx=0;exitDy=0;entryX=0.5;entryY=1;entryDx=0;entryDy=0;" edge="1" parent="1" source="T9mBaE4iDWLHkzV0OVeB-17" target="T9mBaE4iDWLHkzV0OVeB-116">
          <mxGeometry relative="1" as="geometry" />
        </mxCell>
        <mxCell id="T9mBaE4iDWLHkzV0OVeB-123" value="M" style="edgeLabel;html=1;align=center;verticalAlign=middle;resizable=0;points=[];" vertex="1" connectable="0" parent="T9mBaE4iDWLHkzV0OVeB-117">
          <mxGeometry x="-0.0074" y="-1" relative="1" as="geometry">
            <mxPoint as="offset" />
          </mxGeometry>
        </mxCell>
        <mxCell id="T9mBaE4iDWLHkzV0OVeB-17" value="Тренер" style="whiteSpace=wrap;html=1;rounded=0;" vertex="1" parent="1">
          <mxGeometry x="480" y="245" width="120" height="60" as="geometry" />
        </mxCell>
        <mxCell id="T9mBaE4iDWLHkzV0OVeB-20" value="Пол" style="ellipse;whiteSpace=wrap;html=1;" vertex="1" parent="1">
          <mxGeometry x="180" y="-90" width="80" height="40" as="geometry" />
        </mxCell>
        <mxCell id="T9mBaE4iDWLHkzV0OVeB-21" value="&lt;u&gt;Бр. пасош&lt;/u&gt;" style="ellipse;whiteSpace=wrap;html=1;" vertex="1" parent="1">
          <mxGeometry x="270" y="-100" width="80" height="40" as="geometry" />
        </mxCell>
        <mxCell id="T9mBaE4iDWLHkzV0OVeB-22" value="Презиме" style="ellipse;whiteSpace=wrap;html=1;" vertex="1" parent="1">
          <mxGeometry x="120" y="-30" width="80" height="40" as="geometry" />
        </mxCell>
        <mxCell id="T9mBaE4iDWLHkzV0OVeB-23" value="datum na raganje" style="ellipse;whiteSpace=wrap;html=1;" vertex="1" parent="1">
          <mxGeometry x="450" y="80" width="80" height="40" as="geometry" />
        </mxCell>
        <mxCell id="T9mBaE4iDWLHkzV0OVeB-24" value="Име" style="ellipse;whiteSpace=wrap;html=1;" vertex="1" parent="1">
          <mxGeometry x="150" y="37.5" width="80" height="40" as="geometry" />
        </mxCell>
        <mxCell id="T9mBaE4iDWLHkzV0OVeB-25" value="држава" style="ellipse;whiteSpace=wrap;html=1;" vertex="1" parent="1">
          <mxGeometry x="360" y="-110" width="80" height="40" as="geometry" />
        </mxCell>
        <mxCell id="T9mBaE4iDWLHkzV0OVeB-32" style="edgeStyle=orthogonalEdgeStyle;rounded=0;orthogonalLoop=1;jettySize=auto;html=1;exitX=1;exitY=0.25;exitDx=0;exitDy=0;" edge="1" parent="1" source="T9mBaE4iDWLHkzV0OVeB-26" target="T9mBaE4iDWLHkzV0OVeB-29">
          <mxGeometry relative="1" as="geometry">
            <mxPoint x="412" y="615" as="targetPoint" />
          </mxGeometry>
        </mxCell>
        <mxCell id="T9mBaE4iDWLHkzV0OVeB-33" style="edgeStyle=orthogonalEdgeStyle;rounded=0;orthogonalLoop=1;jettySize=auto;html=1;exitX=0.75;exitY=1;exitDx=0;exitDy=0;" edge="1" parent="1" source="T9mBaE4iDWLHkzV0OVeB-26" target="T9mBaE4iDWLHkzV0OVeB-31">
          <mxGeometry relative="1" as="geometry" />
        </mxCell>
        <mxCell id="T9mBaE4iDWLHkzV0OVeB-36" style="edgeStyle=orthogonalEdgeStyle;rounded=0;orthogonalLoop=1;jettySize=auto;html=1;exitX=0.5;exitY=1;exitDx=0;exitDy=0;" edge="1" parent="1" source="T9mBaE4iDWLHkzV0OVeB-26" target="T9mBaE4iDWLHkzV0OVeB-30">
          <mxGeometry relative="1" as="geometry" />
        </mxCell>
        <mxCell id="T9mBaE4iDWLHkzV0OVeB-37" style="edgeStyle=orthogonalEdgeStyle;rounded=0;orthogonalLoop=1;jettySize=auto;html=1;exitX=0;exitY=0.5;exitDx=0;exitDy=0;" edge="1" parent="1" source="T9mBaE4iDWLHkzV0OVeB-26" target="T9mBaE4iDWLHkzV0OVeB-38">
          <mxGeometry relative="1" as="geometry">
            <mxPoint x="205" y="645" as="targetPoint" />
            <Array as="points">
              <mxPoint x="238" y="645" />
              <mxPoint x="238" y="646" />
            </Array>
          </mxGeometry>
        </mxCell>
        <mxCell id="T9mBaE4iDWLHkzV0OVeB-103" style="edgeStyle=orthogonalEdgeStyle;rounded=0;orthogonalLoop=1;jettySize=auto;html=1;exitX=1;exitY=0.5;exitDx=0;exitDy=0;entryX=0;entryY=0.5;entryDx=0;entryDy=0;" edge="1" parent="1" source="T9mBaE4iDWLHkzV0OVeB-26" target="T9mBaE4iDWLHkzV0OVeB-102">
          <mxGeometry relative="1" as="geometry" />
        </mxCell>
        <mxCell id="T9mBaE4iDWLHkzV0OVeB-110" value="N" style="edgeLabel;html=1;align=center;verticalAlign=middle;resizable=0;points=[];" vertex="1" connectable="0" parent="T9mBaE4iDWLHkzV0OVeB-103">
          <mxGeometry x="0.5655" relative="1" as="geometry">
            <mxPoint as="offset" />
          </mxGeometry>
        </mxCell>
        <mxCell id="T9mBaE4iDWLHkzV0OVeB-107" style="edgeStyle=orthogonalEdgeStyle;rounded=0;orthogonalLoop=1;jettySize=auto;html=1;exitX=0.25;exitY=0;exitDx=0;exitDy=0;entryX=0.5;entryY=1;entryDx=0;entryDy=0;" edge="1" parent="1" source="T9mBaE4iDWLHkzV0OVeB-26" target="T9mBaE4iDWLHkzV0OVeB-106">
          <mxGeometry relative="1" as="geometry" />
        </mxCell>
        <mxCell id="T9mBaE4iDWLHkzV0OVeB-113" value="1" style="edgeLabel;html=1;align=center;verticalAlign=middle;resizable=0;points=[];" vertex="1" connectable="0" parent="T9mBaE4iDWLHkzV0OVeB-107">
          <mxGeometry x="-0.35" y="-2" relative="1" as="geometry">
            <mxPoint as="offset" />
          </mxGeometry>
        </mxCell>
        <mxCell id="T9mBaE4iDWLHkzV0OVeB-125" style="edgeStyle=orthogonalEdgeStyle;rounded=0;orthogonalLoop=1;jettySize=auto;html=1;exitX=0.75;exitY=0;exitDx=0;exitDy=0;entryX=0.5;entryY=1;entryDx=0;entryDy=0;" edge="1" parent="1" source="T9mBaE4iDWLHkzV0OVeB-26" target="T9mBaE4iDWLHkzV0OVeB-124">
          <mxGeometry relative="1" as="geometry" />
        </mxCell>
        <mxCell id="T9mBaE4iDWLHkzV0OVeB-128" value="M" style="edgeLabel;html=1;align=center;verticalAlign=middle;resizable=0;points=[];" vertex="1" connectable="0" parent="T9mBaE4iDWLHkzV0OVeB-125">
          <mxGeometry x="0.0651" y="3" relative="1" as="geometry">
            <mxPoint x="1" as="offset" />
          </mxGeometry>
        </mxCell>
        <mxCell id="T9mBaE4iDWLHkzV0OVeB-26" value="Turnir" style="rounded=0;whiteSpace=wrap;html=1;" vertex="1" parent="1">
          <mxGeometry x="270" y="615" width="120" height="60" as="geometry" />
        </mxCell>
        <mxCell id="T9mBaE4iDWLHkzV0OVeB-29" value="ATP/WTA/GS" style="ellipse;whiteSpace=wrap;html=1;" vertex="1" parent="1">
          <mxGeometry x="445" y="585" width="70" height="50" as="geometry" />
        </mxCell>
        <mxCell id="T9mBaE4iDWLHkzV0OVeB-30" value="tip" style="ellipse;whiteSpace=wrap;html=1;" vertex="1" parent="1">
          <mxGeometry x="295" y="705" width="70" height="50" as="geometry" />
        </mxCell>
        <mxCell id="T9mBaE4iDWLHkzV0OVeB-31" value="&lt;u&gt;ime&lt;/u&gt;" style="ellipse;whiteSpace=wrap;html=1;" vertex="1" parent="1">
          <mxGeometry x="445" y="675" width="70" height="50" as="geometry" />
        </mxCell>
        <mxCell id="T9mBaE4iDWLHkzV0OVeB-46" style="edgeStyle=orthogonalEdgeStyle;rounded=0;orthogonalLoop=1;jettySize=auto;html=1;exitX=0;exitY=0.5;exitDx=0;exitDy=0;entryX=1;entryY=0;entryDx=0;entryDy=0;" edge="1" parent="1" source="T9mBaE4iDWLHkzV0OVeB-38" target="T9mBaE4iDWLHkzV0OVeB-41">
          <mxGeometry relative="1" as="geometry" />
        </mxCell>
        <mxCell id="T9mBaE4iDWLHkzV0OVeB-47" style="edgeStyle=orthogonalEdgeStyle;rounded=0;orthogonalLoop=1;jettySize=auto;html=1;exitX=0;exitY=1;exitDx=0;exitDy=0;entryX=0.5;entryY=0;entryDx=0;entryDy=0;" edge="1" parent="1" source="T9mBaE4iDWLHkzV0OVeB-38" target="T9mBaE4iDWLHkzV0OVeB-40">
          <mxGeometry relative="1" as="geometry" />
        </mxCell>
        <mxCell id="T9mBaE4iDWLHkzV0OVeB-100" style="edgeStyle=orthogonalEdgeStyle;rounded=0;orthogonalLoop=1;jettySize=auto;html=1;exitX=0.5;exitY=0;exitDx=0;exitDy=0;entryX=0.5;entryY=1;entryDx=0;entryDy=0;" edge="1" parent="1" source="T9mBaE4iDWLHkzV0OVeB-38" target="T9mBaE4iDWLHkzV0OVeB-48">
          <mxGeometry relative="1" as="geometry" />
        </mxCell>
        <mxCell id="T9mBaE4iDWLHkzV0OVeB-38" value="istorija" style="ellipse;shape=doubleEllipse;whiteSpace=wrap;html=1;" vertex="1" parent="1">
          <mxGeometry x="125" y="605" width="90" height="65" as="geometry" />
        </mxCell>
        <mxCell id="T9mBaE4iDWLHkzV0OVeB-40" value="sponzori" style="ellipse;shape=doubleEllipse;whiteSpace=wrap;html=1;" vertex="1" parent="1">
          <mxGeometry x="95" y="705" width="70" height="50" as="geometry" />
        </mxCell>
        <mxCell id="T9mBaE4iDWLHkzV0OVeB-98" style="edgeStyle=orthogonalEdgeStyle;rounded=0;orthogonalLoop=1;jettySize=auto;html=1;exitX=0;exitY=0;exitDx=0;exitDy=0;entryX=0;entryY=0.5;entryDx=0;entryDy=0;" edge="1" parent="1" source="T9mBaE4iDWLHkzV0OVeB-41" target="T9mBaE4iDWLHkzV0OVeB-43">
          <mxGeometry relative="1" as="geometry" />
        </mxCell>
        <mxCell id="T9mBaE4iDWLHkzV0OVeB-99" style="edgeStyle=orthogonalEdgeStyle;rounded=0;orthogonalLoop=1;jettySize=auto;html=1;exitX=0;exitY=1;exitDx=0;exitDy=0;entryX=1;entryY=0.5;entryDx=0;entryDy=0;" edge="1" parent="1" source="T9mBaE4iDWLHkzV0OVeB-41" target="T9mBaE4iDWLHkzV0OVeB-42">
          <mxGeometry relative="1" as="geometry" />
        </mxCell>
        <mxCell id="T9mBaE4iDWLHkzV0OVeB-41" value="period" style="ellipse;whiteSpace=wrap;html=1;" vertex="1" parent="1">
          <mxGeometry x="45" y="635" width="70" height="50" as="geometry" />
        </mxCell>
        <mxCell id="T9mBaE4iDWLHkzV0OVeB-42" value="do" style="ellipse;whiteSpace=wrap;html=1;" vertex="1" parent="1">
          <mxGeometry x="-10" y="670" width="40" height="30" as="geometry" />
        </mxCell>
        <mxCell id="T9mBaE4iDWLHkzV0OVeB-43" value="od" style="ellipse;whiteSpace=wrap;html=1;direction=west;" vertex="1" parent="1">
          <mxGeometry x="-15" y="622.5" width="50" height="30" as="geometry" />
        </mxCell>
        <mxCell id="T9mBaE4iDWLHkzV0OVeB-48" value="natprevari" style="ellipse;shape=doubleEllipse;whiteSpace=wrap;html=1;" vertex="1" parent="1">
          <mxGeometry x="130" y="520" width="70" height="50" as="geometry" />
        </mxCell>
        <mxCell id="T9mBaE4iDWLHkzV0OVeB-56" style="edgeStyle=orthogonalEdgeStyle;rounded=0;orthogonalLoop=1;jettySize=auto;html=1;exitX=0.25;exitY=1;exitDx=0;exitDy=0;entryX=1;entryY=0;entryDx=0;entryDy=0;" edge="1" parent="1" source="T9mBaE4iDWLHkzV0OVeB-50" target="T9mBaE4iDWLHkzV0OVeB-53">
          <mxGeometry relative="1" as="geometry" />
        </mxCell>
        <mxCell id="T9mBaE4iDWLHkzV0OVeB-101" style="edgeStyle=orthogonalEdgeStyle;rounded=0;orthogonalLoop=1;jettySize=auto;html=1;exitX=0;exitY=0.5;exitDx=0;exitDy=0;entryX=1;entryY=0.5;entryDx=0;entryDy=0;" edge="1" parent="1" source="T9mBaE4iDWLHkzV0OVeB-50" target="T9mBaE4iDWLHkzV0OVeB-52">
          <mxGeometry relative="1" as="geometry" />
        </mxCell>
        <mxCell id="T9mBaE4iDWLHkzV0OVeB-104" style="edgeStyle=orthogonalEdgeStyle;rounded=0;orthogonalLoop=1;jettySize=auto;html=1;exitX=1;exitY=1;exitDx=0;exitDy=0;entryX=0.5;entryY=0;entryDx=0;entryDy=0;" edge="1" parent="1" source="T9mBaE4iDWLHkzV0OVeB-50" target="T9mBaE4iDWLHkzV0OVeB-54">
          <mxGeometry relative="1" as="geometry" />
        </mxCell>
        <mxCell id="T9mBaE4iDWLHkzV0OVeB-105" style="edgeStyle=orthogonalEdgeStyle;rounded=0;orthogonalLoop=1;jettySize=auto;html=1;exitX=0.5;exitY=1;exitDx=0;exitDy=0;entryX=1;entryY=0.5;entryDx=0;entryDy=0;" edge="1" parent="1" source="T9mBaE4iDWLHkzV0OVeB-50" target="T9mBaE4iDWLHkzV0OVeB-102">
          <mxGeometry relative="1" as="geometry" />
        </mxCell>
        <mxCell id="T9mBaE4iDWLHkzV0OVeB-111" value="1" style="edgeLabel;html=1;align=center;verticalAlign=middle;resizable=0;points=[];" vertex="1" connectable="0" parent="T9mBaE4iDWLHkzV0OVeB-105">
          <mxGeometry x="0.4189" y="-2" relative="1" as="geometry">
            <mxPoint x="1" as="offset" />
          </mxGeometry>
        </mxCell>
        <mxCell id="T9mBaE4iDWLHkzV0OVeB-50" value="Teren" style="rounded=0;whiteSpace=wrap;html=1;" vertex="1" parent="1">
          <mxGeometry x="721.5" y="470" width="120" height="60" as="geometry" />
        </mxCell>
        <mxCell id="T9mBaE4iDWLHkzV0OVeB-52" value="&lt;u&gt;ime&lt;/u&gt;" style="ellipse;whiteSpace=wrap;html=1;" vertex="1" parent="1">
          <mxGeometry x="610" y="470" width="80" height="50" as="geometry" />
        </mxCell>
        <mxCell id="T9mBaE4iDWLHkzV0OVeB-53" value="br. publika" style="ellipse;whiteSpace=wrap;html=1;" vertex="1" parent="1">
          <mxGeometry x="648.5" y="550" width="80" height="40" as="geometry" />
        </mxCell>
        <mxCell id="T9mBaE4iDWLHkzV0OVeB-54" value="tip" style="ellipse;whiteSpace=wrap;html=1;" vertex="1" parent="1">
          <mxGeometry x="820" y="550" width="80" height="40" as="geometry" />
        </mxCell>
        <mxCell id="T9mBaE4iDWLHkzV0OVeB-60" value="koga zapocnal da igra" style="ellipse;whiteSpace=wrap;html=1;" vertex="1" parent="1">
          <mxGeometry x="-110" y="330" width="90" height="50" as="geometry" />
        </mxCell>
        <mxCell id="T9mBaE4iDWLHkzV0OVeB-61" value="rang" style="ellipse;whiteSpace=wrap;html=1;" vertex="1" parent="1">
          <mxGeometry x="-110" y="265" width="90" height="50" as="geometry" />
        </mxCell>
        <mxCell id="T9mBaE4iDWLHkzV0OVeB-62" value="ATP/WPA" style="ellipse;whiteSpace=wrap;html=1;" vertex="1" parent="1">
          <mxGeometry x="-100" y="205" width="90" height="50" as="geometry" />
        </mxCell>
        <mxCell id="T9mBaE4iDWLHkzV0OVeB-69" style="edgeStyle=orthogonalEdgeStyle;rounded=0;orthogonalLoop=1;jettySize=auto;html=1;exitX=0.5;exitY=1;exitDx=0;exitDy=0;entryX=0.5;entryY=0;entryDx=0;entryDy=0;" edge="1" parent="1" source="T9mBaE4iDWLHkzV0OVeB-63" target="T9mBaE4iDWLHkzV0OVeB-64">
          <mxGeometry relative="1" as="geometry" />
        </mxCell>
        <mxCell id="T9mBaE4iDWLHkzV0OVeB-63" value="treninzi" style="ellipse;shape=doubleEllipse;whiteSpace=wrap;html=1;" vertex="1" parent="1">
          <mxGeometry x="10" y="340" width="100" height="60" as="geometry" />
        </mxCell>
        <mxCell id="T9mBaE4iDWLHkzV0OVeB-74" style="edgeStyle=orthogonalEdgeStyle;rounded=0;orthogonalLoop=1;jettySize=auto;html=1;exitX=0;exitY=1;exitDx=0;exitDy=0;entryX=0.5;entryY=0;entryDx=0;entryDy=0;" edge="1" parent="1" source="T9mBaE4iDWLHkzV0OVeB-64" target="T9mBaE4iDWLHkzV0OVeB-71">
          <mxGeometry relative="1" as="geometry" />
        </mxCell>
        <mxCell id="T9mBaE4iDWLHkzV0OVeB-75" style="edgeStyle=orthogonalEdgeStyle;rounded=0;orthogonalLoop=1;jettySize=auto;html=1;exitX=1;exitY=1;exitDx=0;exitDy=0;entryX=0.5;entryY=0;entryDx=0;entryDy=0;" edge="1" parent="1" source="T9mBaE4iDWLHkzV0OVeB-64" target="T9mBaE4iDWLHkzV0OVeB-70">
          <mxGeometry relative="1" as="geometry" />
        </mxCell>
        <mxCell id="T9mBaE4iDWLHkzV0OVeB-76" style="edgeStyle=orthogonalEdgeStyle;rounded=0;orthogonalLoop=1;jettySize=auto;html=1;exitX=1;exitY=0;exitDx=0;exitDy=0;entryX=0;entryY=0.5;entryDx=0;entryDy=0;" edge="1" parent="1" source="T9mBaE4iDWLHkzV0OVeB-64" target="T9mBaE4iDWLHkzV0OVeB-73">
          <mxGeometry relative="1" as="geometry" />
        </mxCell>
        <mxCell id="T9mBaE4iDWLHkzV0OVeB-77" style="edgeStyle=orthogonalEdgeStyle;rounded=0;orthogonalLoop=1;jettySize=auto;html=1;exitX=1;exitY=0.5;exitDx=0;exitDy=0;entryX=0;entryY=0.5;entryDx=0;entryDy=0;" edge="1" parent="1" source="T9mBaE4iDWLHkzV0OVeB-64" target="T9mBaE4iDWLHkzV0OVeB-72">
          <mxGeometry relative="1" as="geometry" />
        </mxCell>
        <mxCell id="T9mBaE4iDWLHkzV0OVeB-64" value="datumi" style="ellipse;shape=doubleEllipse;whiteSpace=wrap;html=1;" vertex="1" parent="1">
          <mxGeometry x="40" y="420" width="70" height="40" as="geometry" />
        </mxCell>
        <mxCell id="T9mBaE4iDWLHkzV0OVeB-66" style="edgeStyle=orthogonalEdgeStyle;rounded=0;orthogonalLoop=1;jettySize=auto;html=1;exitX=0;exitY=0.5;exitDx=0;exitDy=0;entryX=0.967;entryY=0.34;entryDx=0;entryDy=0;entryPerimeter=0;" edge="1" parent="1" source="T9mBaE4iDWLHkzV0OVeB-13" target="T9mBaE4iDWLHkzV0OVeB-61">
          <mxGeometry relative="1" as="geometry" />
        </mxCell>
        <mxCell id="T9mBaE4iDWLHkzV0OVeB-67" style="edgeStyle=orthogonalEdgeStyle;rounded=0;orthogonalLoop=1;jettySize=auto;html=1;exitX=0;exitY=1;exitDx=0;exitDy=0;entryX=0.956;entryY=0.3;entryDx=0;entryDy=0;entryPerimeter=0;" edge="1" parent="1" source="T9mBaE4iDWLHkzV0OVeB-13" target="T9mBaE4iDWLHkzV0OVeB-60">
          <mxGeometry relative="1" as="geometry" />
        </mxCell>
        <mxCell id="T9mBaE4iDWLHkzV0OVeB-70" value="mesec" style="ellipse;whiteSpace=wrap;html=1;" vertex="1" parent="1">
          <mxGeometry x="80" y="470" width="40" height="30" as="geometry" />
        </mxCell>
        <mxCell id="T9mBaE4iDWLHkzV0OVeB-71" value="den" style="ellipse;whiteSpace=wrap;html=1;" vertex="1" parent="1">
          <mxGeometry x="20" y="470" width="40" height="30" as="geometry" />
        </mxCell>
        <mxCell id="T9mBaE4iDWLHkzV0OVeB-72" value="godina" style="ellipse;whiteSpace=wrap;html=1;" vertex="1" parent="1">
          <mxGeometry x="120" y="430" width="40" height="30" as="geometry" />
        </mxCell>
        <mxCell id="T9mBaE4iDWLHkzV0OVeB-73" value="vreme" style="ellipse;whiteSpace=wrap;html=1;" vertex="1" parent="1">
          <mxGeometry x="110" y="380" width="40" height="30" as="geometry" />
        </mxCell>
        <mxCell id="T9mBaE4iDWLHkzV0OVeB-84" style="edgeStyle=orthogonalEdgeStyle;rounded=0;orthogonalLoop=1;jettySize=auto;html=1;exitX=0;exitY=1;exitDx=0;exitDy=0;entryX=1;entryY=1;entryDx=0;entryDy=0;" edge="1" parent="1" source="T9mBaE4iDWLHkzV0OVeB-79" target="T9mBaE4iDWLHkzV0OVeB-81">
          <mxGeometry relative="1" as="geometry" />
        </mxCell>
        <mxCell id="T9mBaE4iDWLHkzV0OVeB-85" style="edgeStyle=orthogonalEdgeStyle;rounded=0;orthogonalLoop=1;jettySize=auto;html=1;exitX=0;exitY=0;exitDx=0;exitDy=0;entryX=1;entryY=1;entryDx=0;entryDy=0;" edge="1" parent="1" source="T9mBaE4iDWLHkzV0OVeB-79" target="T9mBaE4iDWLHkzV0OVeB-83">
          <mxGeometry relative="1" as="geometry" />
        </mxCell>
        <mxCell id="T9mBaE4iDWLHkzV0OVeB-86" style="edgeStyle=orthogonalEdgeStyle;rounded=0;orthogonalLoop=1;jettySize=auto;html=1;exitX=0.5;exitY=0;exitDx=0;exitDy=0;entryX=0.5;entryY=1;entryDx=0;entryDy=0;" edge="1" parent="1" source="T9mBaE4iDWLHkzV0OVeB-79" target="T9mBaE4iDWLHkzV0OVeB-82">
          <mxGeometry relative="1" as="geometry" />
        </mxCell>
        <mxCell id="T9mBaE4iDWLHkzV0OVeB-79" value="istorija na pozicii" style="ellipse;shape=doubleEllipse;whiteSpace=wrap;html=1;" vertex="1" parent="1">
          <mxGeometry x="-50" y="95" width="100" height="60" as="geometry" />
        </mxCell>
        <mxCell id="T9mBaE4iDWLHkzV0OVeB-81" value="pozicija" style="ellipse;whiteSpace=wrap;html=1;" vertex="1" parent="1">
          <mxGeometry x="-140" y="110" width="70" height="35" as="geometry" />
        </mxCell>
        <mxCell id="T9mBaE4iDWLHkzV0OVeB-82" value="stop" style="ellipse;whiteSpace=wrap;html=1;" vertex="1" parent="1">
          <mxGeometry x="-60" y="40" width="70" height="35" as="geometry" />
        </mxCell>
        <mxCell id="T9mBaE4iDWLHkzV0OVeB-83" value="start" style="ellipse;whiteSpace=wrap;html=1;" vertex="1" parent="1">
          <mxGeometry x="-130" y="55" width="70" height="35" as="geometry" />
        </mxCell>
        <mxCell id="T9mBaE4iDWLHkzV0OVeB-91" style="edgeStyle=orthogonalEdgeStyle;rounded=0;orthogonalLoop=1;jettySize=auto;html=1;exitX=1;exitY=0.5;exitDx=0;exitDy=0;entryX=0;entryY=0;entryDx=0;entryDy=0;" edge="1" parent="1" source="T9mBaE4iDWLHkzV0OVeB-87" target="T9mBaE4iDWLHkzV0OVeB-17">
          <mxGeometry relative="1" as="geometry" />
        </mxCell>
        <mxCell id="T9mBaE4iDWLHkzV0OVeB-115" value="1" style="edgeLabel;html=1;align=center;verticalAlign=middle;resizable=0;points=[];" vertex="1" connectable="0" parent="T9mBaE4iDWLHkzV0OVeB-91">
          <mxGeometry x="-0.7333" y="1" relative="1" as="geometry">
            <mxPoint as="offset" />
          </mxGeometry>
        </mxCell>
        <mxCell id="T9mBaE4iDWLHkzV0OVeB-87" value="igrac stanal trener" style="rhombus;whiteSpace=wrap;html=1;" vertex="1" parent="1">
          <mxGeometry x="210" y="145" width="80" height="70" as="geometry" />
        </mxCell>
        <mxCell id="T9mBaE4iDWLHkzV0OVeB-94" value="iskustvo" style="ellipse;whiteSpace=wrap;html=1;" vertex="1" parent="1">
          <mxGeometry x="335" y="430" width="70" height="50" as="geometry" />
        </mxCell>
        <mxCell id="T9mBaE4iDWLHkzV0OVeB-102" value="" style="rhombus;whiteSpace=wrap;html=1;" vertex="1" parent="1">
          <mxGeometry x="660" y="640" width="50" height="50" as="geometry" />
        </mxCell>
        <mxCell id="T9mBaE4iDWLHkzV0OVeB-106" value="najdobar igrac" style="rhombus;whiteSpace=wrap;html=1;" vertex="1" parent="1">
          <mxGeometry x="240" y="480" width="90" height="70" as="geometry" />
        </mxCell>
        <mxCell id="T9mBaE4iDWLHkzV0OVeB-120" style="edgeStyle=orthogonalEdgeStyle;rounded=0;orthogonalLoop=1;jettySize=auto;html=1;exitX=1;exitY=0.5;exitDx=0;exitDy=0;entryX=0;entryY=0.5;entryDx=0;entryDy=0;" edge="1" parent="1" source="T9mBaE4iDWLHkzV0OVeB-116" target="T9mBaE4iDWLHkzV0OVeB-119">
          <mxGeometry relative="1" as="geometry" />
        </mxCell>
        <mxCell id="T9mBaE4iDWLHkzV0OVeB-116" value="igraci na koi im e trener" style="rhombus;whiteSpace=wrap;html=1;" vertex="1" parent="1">
          <mxGeometry x="595" y="95" width="110" height="80" as="geometry" />
        </mxCell>
        <mxCell id="T9mBaE4iDWLHkzV0OVeB-119" value="sega/porano" style="ellipse;whiteSpace=wrap;html=1;" vertex="1" parent="1">
          <mxGeometry x="705" y="70" width="80" height="40" as="geometry" />
        </mxCell>
        <mxCell id="T9mBaE4iDWLHkzV0OVeB-124" value="" style="rhombus;whiteSpace=wrap;html=1;" vertex="1" parent="1">
          <mxGeometry x="445" y="460" width="50" height="50" as="geometry" />
        </mxCell>
      </root>
    </mxGraphModel>
  </diagram>
</mxfile>
